<svg xmlns="http://www.w3.org/2000/svg" viewBox="0 0 512 512" role="img" aria-labelledby="title desc">
  <title id="title">Stixio</title>
  <desc id="desc">深色圓角方形中的翡翠色 S 貼紙符號</desc>
  <rect width="512" height="512" rx="118" fill="#0f172a"/>
  <path d="M111 145c0-31 25-56 56-56h190c31 0 56 25 56 56v222c0 31-25 56-56 56H167c-31 0-56-25-56-56V145Z" fill="#d1fae5" opacity=".12"/>
  <path d="M353 168c-25-19-55-29-91-29-53 0-87 23-87 57 0 29 22 45 77 57 75 16 112 47 112 103 0 65-54 108-137 108-52 0-99-15-133-43l39-55c29 22 61 33 97 33 42 0 67-15 67-39 0-22-18-35-66-46-82-19-123-52-123-111 0-68 57-118 144-118 51 0 95 13 132 40l-31 43Z" fill="#6ee7b7"/>
  <circle cx="390" cy="122" r="30" fill="#fbbf24"/>
</svg>
